<svg width="180" height="47" viewBox="0 0 180 47" fill="none" xmlns="http://www.w3.org/2000/svg">
<path fill-rule="evenodd" clip-rule="evenodd" d="M45.9655 23.8823C45.9013 24.0057 45.7761 24.1978 45.6864 24.3095C45.5971 24.4208 45.5181 24.5721 45.5118 24.6461C45.4916 24.8741 45.392 25.1164 45.3188 25.1164C45.2802 25.1164 45.2488 25.1514 45.2488 25.1945C45.2488 25.2376 45.2152 25.3129 45.1734 25.3628C45.1322 25.4126 44.8481 25.8402 44.542 26.3132C44.2364 26.7862 43.9506 27.2139 43.9071 27.2637C43.8635 27.3135 43.8281 27.3889 43.8281 27.4319C43.8281 27.475 43.8025 27.51 43.772 27.51C43.741 27.51 43.6212 27.6783 43.5059 27.8838C43.3901 28.0894 43.2586 28.2576 43.2128 28.2576C43.1671 28.2576 43.1514 28.2792 43.1774 28.3052C43.2366 28.3644 42.7825 29.0057 42.6811 29.0057C42.6398 29.0057 42.6272 29.0268 42.6533 29.0524C42.7067 29.1058 42.5357 29.4643 42.3849 29.6156C42.3302 29.6708 42.1915 29.8763 42.0771 30.0715C41.9626 30.2667 41.8388 30.4269 41.8015 30.4269C41.7643 30.4269 41.7409 30.452 41.7504 30.483C41.7755 30.5701 41.3496 31.1745 41.2626 31.1745C41.2199 31.1745 41.2065 31.1956 41.2321 31.2216C41.285 31.2741 41.1158 31.6309 40.9655 31.7848C40.9117 31.84 40.6195 32.2722 40.3166 32.7451C40.0142 33.2181 39.6789 33.7378 39.5721 33.8998C38.7253 35.1832 38.2174 35.9376 38.1496 36.0143C38.1052 36.0641 38.0688 36.1395 38.0688 36.1826C38.0688 36.2256 38.0352 36.2607 37.9943 36.2607C37.953 36.2607 37.9194 36.2961 37.9194 36.3392C37.9194 36.3827 37.7839 36.6179 37.6183 36.8615C37.4531 37.1052 37.2979 37.3556 37.2741 37.4184C37.2355 37.5189 37.5954 37.532 40.4073 37.532H43.5849L43.9775 36.9338C44.1934 36.6044 44.4052 36.3351 44.4483 36.3351C44.4909 36.3351 44.5044 36.3136 44.4783 36.2876C44.4204 36.2297 44.656 35.8119 44.7458 35.8119C44.7808 35.8119 44.7898 35.78 44.7655 35.7415C44.7417 35.7029 44.7651 35.6441 44.8176 35.6109C44.8696 35.5772 44.9621 35.4547 45.0222 35.338C45.0823 35.2213 45.2048 35.0468 45.2946 34.9499C45.3843 34.8529 45.4387 34.7551 45.4158 34.7318C45.3924 34.7089 45.4265 34.69 45.4916 34.69C45.602 34.69 46.1966 33.8684 46.3846 33.456C46.4313 33.3528 46.4941 33.2688 46.5237 33.2688C46.5538 33.2688 46.7221 33.0247 46.8984 32.7267C47.0743 32.4283 47.2408 32.1676 47.2687 32.147C47.3557 32.0819 47.8668 31.2499 47.8668 31.1732C47.8668 31.1328 47.8991 31.1 47.9382 31.1C47.9777 31.1 48.1024 30.9398 48.216 30.7446C48.4475 30.3448 49.3145 29.0174 49.4357 28.8765C49.4792 28.8262 49.6313 28.5906 49.774 28.3532C50.1016 27.808 50.269 27.6016 50.3067 27.6967C50.3332 27.7636 51.1351 28.9882 51.5313 29.5667C52.0505 30.3246 52.6532 31.2607 52.6532 31.3087C52.6532 31.3397 52.7483 31.4819 52.8646 31.6251C52.9803 31.7682 53.2074 32.1039 53.369 32.3713C53.5305 32.6388 53.7073 32.9045 53.7621 32.9619C53.8164 33.0193 53.96 33.2415 54.0811 33.456C54.2023 33.6705 54.3679 33.9065 54.4495 33.9806C54.5312 34.0541 54.5981 34.1426 54.5981 34.1767C54.5981 34.2471 55.1191 35.0818 55.1985 35.1388C55.2272 35.159 55.3556 35.3623 55.4835 35.5898C55.6109 35.8173 55.7761 36.0695 55.8497 36.1507C55.9232 36.2315 56.127 36.5335 56.302 36.8216C56.477 37.1092 56.6655 37.4041 56.7202 37.4759C56.8306 37.6195 63.4981 37.685 63.4981 37.5423C63.4981 37.5068 63.4057 37.3587 63.2926 37.2134C63.1795 37.068 62.952 36.7399 62.7878 36.4837C62.0509 35.3367 61.8719 35.0576 61.591 34.6164C61.4263 34.358 61.2221 34.0582 61.1373 33.9505C61.0525 33.8432 60.9039 33.6202 60.8074 33.456C60.5539 33.0243 59.6631 31.6807 59.5509 31.5613C59.4989 31.5052 59.4015 31.3536 59.3355 31.2239C59.2691 31.0937 59.0887 30.8025 58.9344 30.5763C58.609 30.0998 58.1966 29.4693 57.7887 28.8244C57.6307 28.5749 57.4791 28.3537 57.4512 28.333C57.4239 28.3124 57.2695 28.0764 57.1079 27.8089C56.9468 27.5414 56.7202 27.2058 56.604 27.0626C56.4878 26.9199 56.3931 26.7723 56.3931 26.735C56.3931 26.6982 56.2822 26.512 56.1472 26.3222C56.0121 26.1319 55.7554 25.7433 55.5768 25.4583C55.3978 25.1729 55.1886 24.8723 55.1119 24.7897C55.0347 24.7071 54.971 24.6039 54.9697 24.5604C54.9683 24.5164 54.8386 24.3037 54.682 24.087L54.397 23.693L50.2394 23.6755L46.0817 23.658L45.9655 23.8823Z" fill="#93C41C"/>
<path fill-rule="evenodd" clip-rule="evenodd" d="M94.4996 6.60102C93.8036 6.73744 93.4019 6.88239 93.1219 7.09958C92.4986 7.58244 92.2581 7.78707 92.2787 7.81714C92.2908 7.83464 92.2195 7.91362 92.1198 7.99215C92.0202 8.07068 91.8636 8.32916 91.7721 8.567C91.6805 8.80439 91.5751 9.06646 91.5378 9.14858C91.3601 9.53944 91.3067 10.2458 91.2695 12.7197L91.2286 15.3938H89.8164H88.4042V16.6279V17.862H89.8254H91.2461V27.5101V37.1582H92.7046H94.163V27.5101V17.862H96.4445H98.7254V16.6279V15.3938H96.4781H94.2303L94.2528 12.9069C94.2801 9.87465 94.3492 9.68753 95.547 9.40392C95.7525 9.35545 95.9948 9.28141 96.0854 9.24012C96.1976 9.18852 96.3161 9.19031 96.4593 9.24551C96.5746 9.28993 96.8537 9.34962 97.0799 9.37744C97.3065 9.40526 97.7889 9.52508 98.1524 9.64355C99.11 9.95543 99.0248 10.0681 99.0234 8.4943C99.0221 6.89899 99.0652 7.00445 98.3516 6.8411C96.9807 6.52743 95.3863 6.42781 94.4996 6.60102ZM115.383 6.57051C113.682 6.99772 113.081 9.24416 114.332 10.4957C115.85 12.0134 118.321 10.9956 118.321 8.8533C118.321 7.24184 116.951 6.17695 115.383 6.57051ZM56.2046 8.4418C56.1297 8.60828 56.0273 8.76804 55.9771 8.79676C55.9264 8.82593 55.7635 9.05793 55.6149 9.31282C55.4659 9.56726 55.3013 9.81991 55.2492 9.87376C55.1155 10.0111 54.673 10.7443 54.673 10.8287C54.673 10.8673 54.6263 10.9256 54.5689 10.9584C54.5115 10.9916 54.3427 11.2267 54.1937 11.4816C54.0448 11.7365 53.8792 11.9887 53.8258 12.0426C53.7719 12.0964 53.5875 12.376 53.4156 12.6636C53.2442 12.9517 53.0521 13.2546 52.9897 13.3368C52.9269 13.4193 52.624 13.8735 52.3166 14.3464C52.0088 14.8194 51.6727 15.3243 51.5699 15.4683C51.4671 15.6124 51.3235 15.8341 51.2517 15.9615C51.1795 16.0885 50.9358 16.4672 50.7096 16.8034L50.299 17.4141L50.1649 17.2454C50.0908 17.1525 49.9068 16.8662 49.7556 16.609C49.6044 16.3519 49.4572 16.1414 49.4289 16.1414C49.4006 16.1414 49.2683 15.948 49.1354 15.7115C49.0022 15.4751 48.7464 15.0752 48.5673 14.8235C48.3878 14.5713 48.2411 14.3321 48.2411 14.2921C48.2411 14.2518 48.1576 14.1288 48.0553 14.0184C47.9534 13.9085 47.8309 13.7438 47.7829 13.6522C47.7353 13.5611 47.4993 13.1923 47.2583 12.8324C47.0173 12.4729 46.8199 12.1521 46.8199 12.1193C46.8199 12.087 46.736 11.9604 46.6337 11.8384C46.4142 11.5777 45.8479 10.7013 45.8479 10.6223C45.8479 10.5927 45.7438 10.4841 45.6168 10.3817C45.3094 10.134 44.7799 9.355 44.8458 9.24775C44.8795 9.1939 44.8651 9.18358 44.8072 9.21948C44.7489 9.25538 44.7009 9.21858 44.6749 9.11851C44.652 9.03235 44.6004 8.96145 44.5595 8.96145C44.5187 8.96145 44.5048 8.91119 44.5286 8.84926C44.5555 8.77926 44.5281 8.73707 44.4554 8.73707C44.3917 8.73707 44.3536 8.69534 44.3711 8.64373C44.4572 8.3875 44.2162 8.3682 40.9861 8.36775C38.7675 8.36775 37.8476 8.39109 37.94 8.44494C38.0132 8.48712 38.0531 8.55353 38.0293 8.59213C38.0051 8.63072 38.0199 8.66258 38.0616 8.66258C38.1038 8.66258 38.2299 8.82234 38.3421 9.01754C38.4543 9.2132 38.6423 9.5161 38.7599 9.69067C38.8779 9.86568 38.9573 10.0088 38.9367 10.0088C38.916 10.0088 38.982 10.0977 39.0825 10.2067C39.1835 10.3153 39.2661 10.4464 39.2661 10.498C39.2661 10.5491 39.3186 10.6111 39.3832 10.6357C39.4474 10.6604 39.4788 10.7147 39.4532 10.756C39.4276 10.7973 39.4411 10.8314 39.4828 10.8314C39.5246 10.8314 39.6511 10.9911 39.7633 11.1868C39.8759 11.382 40.1313 11.7868 40.331 12.0856C40.5307 12.385 40.6734 12.6627 40.6487 12.7027C40.624 12.7431 40.6559 12.7758 40.72 12.7758C40.7842 12.7758 40.8367 12.8229 40.8367 12.8804C40.8367 12.9374 40.8892 13.0047 40.9538 13.0294C41.018 13.054 41.0494 13.1079 41.0238 13.1492C40.9982 13.1909 41.0122 13.2246 41.0548 13.2246C41.184 13.2246 41.3752 13.6549 41.2657 13.6989C41.2074 13.7227 41.2177 13.7388 41.2931 13.7424C41.4344 13.7492 42.1336 14.7683 42.069 14.8733C42.0447 14.9128 42.077 14.9451 42.1412 14.9451C42.2054 14.9451 42.2579 14.9917 42.2579 15.0492C42.2579 15.1066 42.3104 15.1735 42.3746 15.1982C42.4392 15.2229 42.4728 15.2736 42.45 15.3104C42.4271 15.3476 42.4585 15.3974 42.52 15.4208C42.5814 15.4445 42.6317 15.5123 42.6317 15.572C42.6317 15.6317 42.6739 15.6976 42.725 15.7183C42.7955 15.747 42.791 15.7757 42.7066 15.8354C42.6084 15.905 42.6093 15.9153 42.7152 15.9162C42.8179 15.9171 43.2299 16.4282 43.2299 16.5543C43.2299 16.5776 43.2981 16.6696 43.3816 16.7589C43.4646 16.8487 43.5162 16.9649 43.496 17.0179C43.4758 17.0708 43.5086 17.1139 43.5691 17.1139C43.6293 17.1139 43.6786 17.1606 43.6786 17.218C43.6786 17.2754 43.7316 17.3423 43.7958 17.367C43.8599 17.3917 43.894 17.4424 43.8711 17.4796C43.8478 17.5164 43.8797 17.5662 43.9412 17.59C44.0026 17.6133 44.0529 17.6843 44.0529 17.7471C44.0529 17.8103 44.0901 17.862 44.1355 17.862C44.1812 17.862 44.1987 17.9122 44.1754 17.9741C44.1516 18.0356 44.1601 18.0863 44.1942 18.0863C44.2539 18.0863 44.8005 18.8636 44.8005 18.9484C44.8005 18.9713 44.8678 19.0624 44.9504 19.1503C45.0325 19.2387 45.0998 19.3518 45.0998 19.4012C45.0998 19.4505 45.1523 19.5116 45.2169 19.5362C45.2811 19.5609 45.3125 19.6152 45.287 19.657C45.2609 19.6987 45.2946 19.7534 45.361 19.779C45.4279 19.8046 45.4647 19.8719 45.4431 19.9284C45.4216 19.9845 45.4382 20.0308 45.4804 20.0308C45.523 20.0308 45.5374 20.0635 45.5127 20.1035C45.4611 20.1865 45.6715 20.6289 45.7622 20.6289C45.7954 20.6289 45.869 20.7218 45.926 20.8349C45.983 20.948 46.1768 21.259 46.3572 21.5264L46.6844 22.0129L50.3116 21.9967L53.9393 21.981L54.1991 21.5493C54.3418 21.3119 54.4832 21.1006 54.5133 21.079C54.5635 21.0436 54.9598 20.3996 55.0473 20.2121C55.0675 20.1676 55.1608 20.033 55.2541 19.9127C55.4799 19.6215 56.1696 18.5759 56.4375 18.1191C56.5555 17.9176 56.6964 17.7013 56.7503 17.6389C56.8041 17.5765 57.0989 17.1381 57.4054 16.6651C57.7115 16.1922 58.0633 15.6671 58.1876 15.4984C58.3115 15.3301 58.4129 15.1677 58.4129 15.138C58.4129 15.1084 58.6314 14.7701 58.8989 14.3868C59.1663 14.0032 59.3849 13.6608 59.3853 13.6253C59.3853 13.5903 59.4724 13.4602 59.5792 13.3368C59.686 13.2134 59.8256 13.0114 59.8897 12.888C59.9539 12.7646 60.1863 12.407 60.4062 12.0928C60.6261 11.7791 60.8061 11.4893 60.8061 11.4489C60.8061 11.4085 60.8828 11.2949 60.9766 11.1967C61.1399 11.0257 61.7036 10.1421 61.7036 10.0573C61.7036 10.0349 61.7848 9.92895 61.8835 9.82215C61.9827 9.7149 62.1205 9.50847 62.1896 9.36263C62.2587 9.21724 62.3807 9.03235 62.4611 8.95202C62.624 8.78913 62.9004 8.32333 62.9004 8.21159C62.9004 8.16581 61.6888 8.13889 59.6209 8.13889H56.3415L56.2046 8.4418ZM11.8174 15.546V22.7286L11.9857 22.6411C12.0786 22.5936 12.4779 22.323 12.8733 22.0403C13.2691 21.758 13.6308 21.5264 13.6775 21.5264C13.7241 21.5264 13.7623 21.4959 13.7623 21.4582C13.7623 21.4205 13.9386 21.2814 14.1549 21.1495C14.3708 21.0171 14.8218 20.7115 15.1574 20.4696C15.4931 20.2282 15.8005 20.0308 15.8413 20.0308C15.8817 20.0308 15.9351 19.9783 15.9598 19.9136C15.9845 19.8495 16.0388 19.8181 16.0801 19.8436C16.1213 19.8692 16.1554 19.8553 16.1554 19.8127C16.1554 19.7229 16.5625 19.4968 16.632 19.5475C16.658 19.5663 16.6625 19.56 16.6428 19.5335C16.5885 19.4604 17.639 18.7429 17.7234 18.7954C17.7714 18.8245 17.7979 17.0057 17.7997 13.602L17.8028 8.36326H14.8101H11.8174V15.546ZM29.7306 10.2144C29.7557 11.2326 29.7934 13.5867 29.8141 15.4454C29.8464 18.3421 29.8675 18.82 29.9594 18.7846C30.0182 18.7617 30.0667 18.7805 30.0667 18.8263C30.0667 18.8716 30.1039 18.9089 30.1497 18.9089C30.2673 18.9089 31.1886 19.5959 31.1886 19.6839C31.1886 19.7238 31.2083 19.7368 31.2321 19.713C31.2792 19.6655 32.4621 20.445 32.5523 20.5827C32.5824 20.6289 32.608 20.6415 32.6084 20.6105C32.6093 20.58 32.8534 20.7295 33.1519 20.9426C33.6504 21.2994 35.3646 22.4688 35.5827 22.6008C35.6572 22.6456 35.6761 21.2083 35.6761 15.5105V8.36326H32.6802H29.6844L29.7306 10.2144ZM71.4639 14.8405C70.5695 14.9321 69.9354 15.033 69.6689 15.1264C69.5042 15.1838 69.0263 15.3355 68.6071 15.4634C68.1876 15.5913 67.8003 15.7371 67.7469 15.7878C67.6935 15.8385 67.3973 16.0041 67.0886 16.1558C66.7803 16.3075 66.4603 16.4838 66.3782 16.5471C66.2956 16.6108 66.0102 16.8231 65.7437 17.0192C65.1329 17.468 63.806 18.7837 63.5268 19.2167C63.4111 19.3971 63.2432 19.6211 63.1539 19.7144C63.0651 19.8082 62.9457 19.9765 62.8896 20.0887C62.8331 20.2008 62.6316 20.5787 62.4413 20.9283C62.251 21.2778 62.0159 21.7997 61.9185 22.0874C61.8207 22.3755 61.7193 22.6281 61.6928 22.6483C61.5891 22.7295 61.3298 24.2432 61.258 25.1891C61.1368 26.7804 61.3755 29.144 61.7368 29.9288C61.7969 30.0585 61.9598 30.4723 62.0994 30.8474C62.2389 31.223 62.3946 31.5762 62.4449 31.6327C62.4956 31.6893 62.6702 31.9711 62.8331 32.2592C63.359 33.1886 64.1183 34.0955 65.0396 34.8961C65.9057 35.6486 66.1027 35.7998 66.5276 36.0372C66.7744 36.1754 66.9934 36.3128 67.0141 36.3428C67.0675 36.4196 68.2504 36.9338 68.3742 36.9338C68.4303 36.9338 68.556 36.9895 68.6534 37.0577C69.2354 37.4651 72.4623 37.7537 74.0496 37.5401C74.8008 37.4391 75.9886 37.1569 75.9886 37.0797C75.9886 37.0496 76.0815 37.0016 76.1946 36.9733C76.5437 36.8863 77.6342 36.3962 77.6342 36.3267C77.6342 36.2903 77.6634 36.2607 77.6993 36.2607C77.802 36.2607 78.831 35.6491 78.831 35.5876C78.831 35.5575 78.9737 35.4381 79.1483 35.3224C79.3228 35.207 79.7855 34.7906 80.1764 34.3966L80.8876 33.6808L80.9078 35.4193L80.9276 37.1582H82.3847H83.8418V26.276V15.3938H82.3833H80.9249V17.24C80.9249 19.3146 80.9805 19.1894 80.3882 18.4534C79.3394 17.1507 77.4798 15.8583 75.9886 15.397C75.6803 15.3014 75.2931 15.1789 75.1288 15.1246C74.4737 14.9078 72.3852 14.7458 71.4639 14.8405ZM109.212 14.9065C108.868 14.9594 108.532 15.0564 108.458 15.1232C108.384 15.1896 108.284 15.2439 108.235 15.2439C108.103 15.2439 107.102 15.7596 107.102 15.8273C107.102 15.8592 106.993 15.9467 106.859 16.0221C106.639 16.1468 106.5 16.2644 105.905 16.8307C105.595 17.1269 104.974 17.8714 104.92 18.0132C104.754 18.444 104.709 18.1855 104.709 16.8191V15.3938H103.175H101.642L101.661 26.2572L101.68 37.1205H103.176H104.671L104.718 31.2495C104.761 25.6855 104.805 24.4958 105.013 23.172C105.128 22.4441 105.323 21.6763 105.394 21.6763C105.428 21.6763 105.457 21.6382 105.457 21.592C105.457 21.4439 106.059 20.0904 106.178 19.9715C106.241 19.9087 106.378 19.7229 106.481 19.5591C106.724 19.1737 107.347 18.584 107.775 18.3336C107.96 18.225 108.129 18.1115 108.149 18.0809C108.389 17.726 109.852 17.6012 110.719 17.8615C111.292 18.0334 111.309 18.0343 111.392 17.8965C111.439 17.8189 111.561 17.6178 111.664 17.4505C111.767 17.2831 111.919 17.0345 112.001 16.898C112.083 16.7616 112.298 16.4156 112.478 16.1293C112.853 15.5343 112.877 15.5837 112.039 15.2224C111.062 14.8019 110.379 14.7252 109.212 14.9065ZM132.719 14.8746C131.584 14.9926 129.446 15.5428 129.091 15.8076C129.029 15.8534 128.676 16.0337 128.307 16.2083C127.938 16.3824 127.618 16.5516 127.596 16.5839C127.575 16.6158 127.384 16.7401 127.172 16.8594C126.492 17.2427 125.394 18.2219 124.753 19.0175C124.021 19.9258 123.93 20.0478 123.93 20.1223C123.93 20.1649 123.819 20.3552 123.683 20.5455C123.547 20.7353 123.309 21.1939 123.155 21.5641C123.001 21.9344 122.831 22.3212 122.778 22.4239C121.981 23.9694 121.972 28.8447 122.764 30.3412C122.822 30.4498 122.995 30.8335 123.15 31.1934C123.304 31.5533 123.459 31.8477 123.493 31.8477C123.528 31.8477 123.556 31.884 123.556 31.928C123.556 31.972 123.657 32.1546 123.781 32.3341C123.904 32.5132 124.005 32.694 124.005 32.7358C124.005 32.7775 124.068 32.8556 124.144 32.9094C124.221 32.9633 124.37 33.1343 124.476 33.29C124.728 33.6624 126.116 35.0253 126.47 35.2492C126.623 35.3457 126.796 35.4714 126.854 35.5283C126.995 35.6679 127.842 36.1858 127.928 36.1858C127.966 36.1858 128.066 36.2472 128.151 36.3226C128.301 36.455 129.447 36.9338 129.615 36.9338C129.66 36.9338 129.843 36.9998 130.02 37.0806C131.359 37.6909 135.036 37.7981 137.504 37.2991C137.914 37.2161 138.267 37.1201 138.289 37.086C138.31 37.0514 138.53 36.9648 138.776 36.893C139.238 36.7593 140.093 36.4142 140.16 36.3352C140.181 36.3105 140.427 36.1745 140.708 36.0327C140.988 35.8905 141.291 35.7034 141.381 35.6163C141.47 35.5297 141.645 35.4067 141.768 35.3435C142.072 35.1882 143.392 33.925 143.652 33.5408C143.767 33.3708 143.904 33.2047 143.955 33.1715C144.296 32.9543 144.239 32.3714 143.878 32.3714C143.841 32.3714 143.553 32.191 143.238 31.9702C142.923 31.7494 142.497 31.4802 142.291 31.3716L141.918 31.1741L141.523 31.6045C141.306 31.841 141.091 32.0685 141.044 32.1098C140.998 32.1506 140.801 32.3445 140.605 32.5397C140.41 32.7349 140.228 32.8951 140.199 32.8951C140.171 32.8951 139.957 33.0427 139.724 33.224C138.408 34.2454 136.161 34.9495 134.214 34.9508C133.263 34.9513 132.607 34.9041 132.607 34.8355C132.606 34.8126 132.362 34.7529 132.064 34.7026C131.007 34.5249 129.618 33.9528 128.927 33.4107C128.775 33.2918 128.616 33.1939 128.573 33.1939C128.442 33.1939 126.878 31.5775 126.752 31.3119C126.686 31.1746 126.53 30.9471 126.403 30.8061C126.277 30.6648 126.174 30.5239 126.174 30.4925C126.174 30.4615 126.027 30.1223 125.847 29.7395C125.202 28.3645 124.921 25.768 125.265 24.3688C125.433 23.6881 125.671 22.9126 125.723 22.8727C125.751 22.8525 125.899 22.5783 126.053 22.2637C126.207 21.9496 126.449 21.5623 126.59 21.4039C126.731 21.2451 126.847 21.079 126.847 21.0351C126.847 20.9911 126.99 20.8152 127.165 20.6442C127.34 20.4728 127.572 20.2399 127.681 20.1259C128.06 19.7292 128.534 19.3594 129.196 18.9439C129.82 18.553 130.088 18.4256 130.736 18.2147C130.88 18.168 131.015 18.1079 131.035 18.0814C131.298 17.7417 134.412 17.498 135.787 17.7094C136.52 17.822 137.423 18.0316 137.471 18.1007C137.494 18.1326 137.696 18.2223 137.92 18.3004C138.433 18.4781 138.918 18.7043 138.951 18.7801C138.966 18.812 139.117 18.9084 139.288 18.995C139.847 19.2764 140.939 20.2296 141.591 21.0032L141.937 21.4143L142.264 21.233C142.444 21.1333 142.608 21.027 142.628 20.9965C142.649 20.9664 142.918 20.799 143.227 20.6249C143.535 20.4512 143.804 20.2848 143.825 20.2556C143.845 20.2264 143.938 20.1627 144.03 20.1142C144.259 19.9935 144.198 19.639 143.901 19.3576C143.808 19.2697 143.451 18.7653 143.451 18.7213C143.451 18.6751 142.607 17.835 142.095 17.3719C141.804 17.1081 141.119 16.6651 141.003 16.6651C140.96 16.6651 140.907 16.6216 140.887 16.5687C140.867 16.5153 140.552 16.3402 140.187 16.1791C139.822 16.0185 139.507 15.865 139.487 15.8385C139.389 15.7133 137.029 15.0532 136.296 14.9464C135.536 14.8356 133.487 14.7947 132.719 14.8746ZM158.746 14.8405C157.843 14.933 157.217 15.0335 156.951 15.1282C156.786 15.187 156.309 15.3386 155.889 15.4647C155.47 15.5908 155.084 15.7371 155.03 15.7892C154.975 15.8412 154.662 16.0127 154.333 16.1697C154.004 16.3272 153.701 16.496 153.66 16.5449C153.619 16.5938 153.422 16.7428 153.223 16.8761C152.781 17.1718 152.573 17.3553 151.81 18.1236C150.965 18.9753 150.815 19.1422 150.663 19.3949C150.589 19.5183 150.457 19.7036 150.369 19.8064C150.069 20.1569 149.453 21.3384 149.238 21.9752C149.12 22.3248 148.993 22.6326 148.957 22.6586C148.921 22.6851 148.913 22.7412 148.939 22.7834C148.965 22.8256 148.959 22.8714 148.925 22.8853C148.366 23.115 148.381 28.4049 148.945 29.6416C149.001 29.765 149.104 30.063 149.173 30.304C149.31 30.777 149.64 31.5627 149.727 31.6233C149.757 31.644 149.859 31.8239 149.954 32.0227C150.538 33.2433 152.706 35.4924 153.831 36.0444C154.007 36.131 154.195 36.2459 154.25 36.3002C154.362 36.4128 155.32 36.8589 155.449 36.8589C155.497 36.8589 155.669 36.9284 155.832 37.0137C157.217 37.7366 162.036 37.8084 163.158 37.1228C163.241 37.0725 163.443 36.9877 163.607 36.9347C164.096 36.7772 164.916 36.3953 164.916 36.3253C164.916 36.2899 164.949 36.2607 164.99 36.2607C165.109 36.2607 165.828 35.8048 166.132 35.5364C166.286 35.4 166.443 35.2883 166.48 35.2883C166.516 35.2883 166.92 34.9198 167.377 34.4693L168.207 33.6508V35.4045V37.1582H169.665H171.124V26.276V15.3938H169.667H168.209L168.19 17.2333L168.17 19.0727L167.774 18.5844C167.159 17.8274 165.892 16.6651 165.68 16.6651C165.639 16.6651 165.588 16.6207 165.567 16.566C165.546 16.5117 165.282 16.338 164.979 16.18C164.677 16.0221 164.413 15.8704 164.392 15.8435C164.282 15.6967 162.315 15.0631 161.607 14.9455C161.093 14.8607 159.22 14.7916 158.746 14.8405ZM114.507 26.276V37.1582H116.002H117.498V26.276V15.3938H116.002H114.507V26.276ZM23.7761 16.11C23.7492 16.1733 23.4808 16.3618 22.2508 17.1817C22.004 17.3463 21.7478 17.5281 21.6818 17.5864C21.4642 17.7762 20.4572 18.4162 20.3997 18.4005C20.3692 18.3924 20.3436 18.4157 20.3436 18.4525C20.3436 18.4893 20.1673 18.6311 19.951 18.7675C19.7351 18.9044 19.5417 19.0368 19.5211 19.0619C19.4363 19.1665 18.2825 19.9141 18.2309 19.8984C18.2 19.889 18.1748 19.9127 18.1748 19.9518C18.1748 19.9908 17.9895 20.1331 17.7633 20.2686C17.5372 20.4037 17.3523 20.5401 17.3523 20.572C17.3523 20.6034 17.3159 20.6289 17.2719 20.6289C17.228 20.6289 17.1409 20.6801 17.079 20.742C17.017 20.804 16.9354 20.8358 16.8972 20.8125C16.8595 20.7892 16.8286 20.799 16.8286 20.8345C16.8286 20.9076 16.1864 21.377 16.0863 21.377C16.0509 21.377 16.0015 21.4295 15.9768 21.4941C15.9522 21.5583 15.9019 21.592 15.8647 21.5691C15.8274 21.5462 15.7767 21.5812 15.7511 21.6472C15.7242 21.7172 15.6578 21.7481 15.59 21.7221C15.5263 21.6979 15.4935 21.7086 15.5169 21.7463C15.5573 21.8114 15.2804 21.946 15.1673 21.9164C15.1377 21.9088 15.135 21.9581 15.1615 22.0268C15.1974 22.1206 15.1785 22.139 15.0838 22.1026C15.0017 22.0712 14.9586 22.0928 14.9586 22.1646C14.9586 22.2252 14.925 22.2745 14.8841 22.2745C14.7428 22.2745 14.697 22.2974 14.5978 22.4168C14.5193 22.5119 14.5085 22.5132 14.5453 22.4239C14.5709 22.3625 14.5355 22.3876 14.4668 22.48C14.3981 22.5729 14.2949 22.6483 14.2366 22.6483C14.1787 22.6483 14.1123 22.6986 14.0885 22.7601C14.0647 22.8215 14.0172 22.8543 13.9826 22.8328C13.9476 22.8117 13.8803 22.8669 13.8327 22.9557C13.7762 23.0612 13.7277 23.0881 13.6936 23.0325C13.6559 22.9719 13.6003 22.9795 13.4962 23.0598C13.3552 23.1689 13.3552 23.1707 13.4939 23.1222C13.5931 23.0872 13.6205 23.0989 13.5832 23.1594C13.5531 23.2075 13.4854 23.247 13.432 23.247C13.3786 23.247 13.2462 23.3295 13.1372 23.43C13.0286 23.531 12.9384 23.5898 12.937 23.5611C12.9357 23.5324 12.8854 23.5736 12.8257 23.6526C12.7656 23.7321 12.6951 23.7756 12.6691 23.7496C12.6431 23.7231 12.556 23.776 12.4757 23.8671C12.3954 23.9578 12.3509 23.9901 12.377 23.9385C12.4035 23.8873 12.3891 23.8451 12.3456 23.8451C12.302 23.8451 12.2661 23.8891 12.2661 23.9434C12.2661 23.9973 12.1652 24.1162 12.0418 24.2073L11.8174 24.3733V31.0274V37.6814H14.8092H17.801L17.8015 30.5952C17.8015 23.982 17.8104 23.4951 17.932 23.3062C18.0815 23.0746 18.9458 22.3966 19.4901 22.0842C19.692 21.9685 19.9079 21.8262 19.9698 21.7683C20.0313 21.7104 20.2072 21.5902 20.3598 21.5013C20.7906 21.2509 22.1732 20.3005 22.2015 20.2354C22.2158 20.2035 22.3307 20.1237 22.4577 20.0577C22.5847 19.9922 22.9168 19.7727 23.1959 19.5699C23.7676 19.1535 23.8502 19.1597 24.3936 19.6556C24.5291 19.7799 24.6678 19.8813 24.7014 19.8813C24.7616 19.8813 25.2072 20.1748 25.2799 20.2628C25.3005 20.2874 25.5612 20.4526 25.8597 20.6298C26.1581 20.8067 26.4018 20.9772 26.4018 21.0081C26.4018 21.0723 27.2423 21.6539 27.9253 22.0627C28.1775 22.2139 28.4252 22.3741 28.4759 22.4195C28.5261 22.4648 28.7178 22.603 28.9008 22.7264C29.0839 22.8503 29.3204 23.054 29.4259 23.1796L29.6179 23.4081V30.5445V37.6814H32.6461H35.6743L35.694 30.9767L35.7133 24.2723L35.4517 24.0928C35.3076 23.9941 34.9711 23.7648 34.7036 23.5831C34.4362 23.4018 34.1212 23.1761 34.0031 23.0818C33.8856 22.9876 33.6473 22.826 33.4741 22.7233C33.3013 22.6205 33.0949 22.476 33.0154 22.402C32.8611 22.2579 32.0861 21.7445 32.0861 21.7858C32.0861 21.7997 31.986 21.7176 31.8639 21.6036C31.7423 21.4897 31.5175 21.3371 31.3649 21.2648C31.2124 21.1926 30.988 21.0283 30.8664 20.9C30.7448 20.7716 30.6689 20.7169 30.6981 20.7788C30.7452 20.8785 30.7398 20.8785 30.6505 20.7788C30.5491 20.6657 30.3476 20.537 29.9805 20.3516C29.8715 20.2964 29.7624 20.1995 29.7378 20.1362C29.7135 20.0729 29.6633 20.0402 29.6265 20.0631C29.5892 20.086 29.5394 20.0545 29.5161 19.9931C29.4923 19.9316 29.4214 19.8813 29.3586 19.8813C29.2957 19.8813 29.2441 19.8477 29.2441 19.8064C29.2441 19.7651 29.1984 19.7314 29.1427 19.7314C29.0871 19.7314 28.9439 19.6399 28.825 19.5282C28.7056 19.416 28.5661 19.3334 28.5149 19.3442C28.4633 19.3554 28.4211 19.3087 28.4211 19.2405C28.4211 19.1651 28.3803 19.1328 28.3152 19.1579C28.2569 19.1804 28.1927 19.1557 28.1725 19.1027C28.1523 19.0502 28.015 18.9497 27.8674 18.8797C27.7193 18.8097 27.5986 18.7182 27.5986 18.6764C27.5986 18.6352 27.5645 18.6217 27.5232 18.6473C27.4819 18.6728 27.4276 18.6414 27.4029 18.5773C27.3782 18.5126 27.3105 18.4601 27.2517 18.4601C27.1929 18.4601 27.1256 18.4094 27.1023 18.348C27.0785 18.286 27.0305 18.2358 26.9955 18.2358C26.8649 18.2358 26.2523 17.822 26.2523 17.7336C26.2523 17.6829 26.2021 17.6614 26.1401 17.6851C26.0782 17.7089 26.0279 17.6923 26.0279 17.6488C26.0279 17.6053 25.9072 17.5124 25.7591 17.4424C25.6115 17.3719 25.4733 17.2696 25.4522 17.2149C25.4311 17.1597 25.3835 17.1336 25.3463 17.1565C25.3095 17.1794 25.2588 17.1457 25.2341 17.0811C25.2094 17.017 25.1574 16.9645 25.1183 16.9645C25.0039 16.9645 24.5296 16.6189 24.57 16.5651C24.5902 16.5377 24.5857 16.531 24.5601 16.5498C24.4869 16.6037 24.0835 16.3726 24.0835 16.277C24.0835 16.2299 24.0615 16.2132 24.0346 16.2402C24.0077 16.2671 23.9453 16.233 23.8955 16.1652C23.8457 16.097 23.7918 16.0723 23.7761 16.11ZM73.6547 17.7166C74.4485 17.8032 75.324 17.9836 75.3878 18.0738C75.4097 18.1047 75.6768 18.2214 75.981 18.3322C76.6357 18.571 77.8052 19.3374 78.3823 19.906C78.9311 20.4472 79.4292 20.983 79.4292 21.0328C79.4292 21.0553 79.5939 21.3182 79.7958 21.618C79.9973 21.9173 80.2518 22.3979 80.3608 22.686C80.4703 22.9737 80.6072 23.2963 80.6646 23.4022C80.7678 23.5934 80.9428 24.3751 81.0353 25.0577C81.2031 26.298 80.9626 28.9025 80.6408 29.3325C80.6063 29.3791 80.4667 29.7094 80.3312 30.0671C80.1952 30.4247 80.0296 30.7779 79.9623 30.8524C79.8955 30.9269 79.7191 31.1728 79.5706 31.3989C78.6645 32.778 76.6532 34.1758 74.9915 34.581C73.1965 35.0186 73.2544 35.01 72.4161 34.9625C71.5357 34.9127 71.3481 34.8911 71.2382 34.8269C71.1978 34.8036 71.03 34.7614 70.8657 34.7332C70.3021 34.6371 69.3875 34.3073 68.867 34.0125C68.5807 33.8505 68.328 33.7176 68.3056 33.7176C67.9991 33.7176 66.0533 31.7974 65.7163 31.1625C65.5996 30.943 65.4645 30.7299 65.4161 30.6886C65.3169 30.6047 64.8448 29.5999 64.8448 29.4725C64.8448 29.4276 64.8017 29.3459 64.7488 29.2916C64.3705 28.903 64.0788 26.5888 64.2408 25.2663C64.3373 24.4797 64.5877 23.3892 64.6864 23.3255C64.7214 23.3026 64.7757 23.2021 64.8071 23.1016C64.8991 22.8072 65.2972 21.9447 65.3609 21.9021C65.3932 21.8805 65.553 21.6445 65.7163 21.377C66.0223 20.8753 66.3423 20.4845 66.7794 20.0779C66.9176 19.9491 67.1424 19.7346 67.2793 19.6009C67.4157 19.4671 67.5485 19.3576 67.575 19.3576C67.601 19.3576 67.8375 19.2042 68.1005 19.0166C68.3635 18.829 68.8575 18.5571 69.1986 18.4126C69.5396 18.2676 69.9283 18.0993 70.0624 18.0388C70.2873 17.9373 71.1753 17.7592 71.8004 17.6901C72.3376 17.6308 72.9493 17.6398 73.6547 17.7166ZM161.738 17.8265C162.108 17.8911 162.478 17.9867 162.56 18.0392C162.642 18.0913 162.949 18.2219 163.242 18.3291C163.767 18.5216 164.892 19.2087 165.328 19.6031C165.93 20.1488 166.636 20.8789 166.636 20.9565C166.636 21.0113 167.001 21.5264 167.093 21.6014C167.138 21.6382 167.516 22.4172 167.825 23.1105C168.698 25.0671 168.475 28.5799 167.351 30.5885C166.152 32.729 163.281 34.7646 161.462 34.7646C161.387 34.7646 161.326 34.7902 161.326 34.8207C161.325 34.9741 159.319 34.9966 158.671 34.8503C157.316 34.5447 156.773 34.3567 155.997 33.9259C155.555 33.6804 155.193 33.447 155.193 33.4071C155.193 33.3676 155.159 33.3555 155.119 33.3811C155.077 33.4067 155.044 33.3905 155.044 33.3456C155.044 33.3007 154.98 33.2397 154.901 33.2106C154.576 33.0876 153.23 31.6476 152.976 31.1508C152.909 31.0202 152.758 30.7783 152.641 30.6136C152.523 30.4489 152.324 30.0455 152.197 29.7175C152.071 29.3894 151.943 29.1031 151.912 29.082C151.832 29.026 151.615 28.0688 151.518 27.3467C151.369 26.2401 151.549 24.2934 151.865 23.5835C151.92 23.4601 152.08 23.0899 152.22 22.7605C152.36 22.4316 152.632 21.9178 152.824 21.6193C153.017 21.3205 153.174 21.0575 153.174 21.0346C153.174 21.0117 153.283 20.8838 153.417 20.7506C153.551 20.6173 153.762 20.3925 153.888 20.2507C154.364 19.7135 155.793 18.6396 156.24 18.4835C156.618 18.3515 157.181 18.1182 157.212 18.0805C157.516 17.7175 160.237 17.5649 161.738 17.8265Z" fill="white"/>
<path fill-rule="evenodd" clip-rule="evenodd" d="M11.8174 8.28831C11.8174 8.33722 12.8648 8.36325 14.8092 8.36325C16.7536 8.36325 17.801 8.33722 17.801 8.28831C17.801 8.23984 16.7536 8.21381 14.8092 8.21381C12.8648 8.21381 11.8174 8.23984 11.8174 8.28831ZM29.8051 8.28831C29.7746 8.33767 30.7641 8.36325 32.7175 8.36325H35.6761V15.5015C35.6761 22.2579 35.6572 22.9207 35.475 22.6295C35.4418 22.5761 35.3135 22.4719 35.1901 22.3975C35.0074 22.288 35.0213 22.3126 35.2641 22.5303C35.8762 23.08 35.8255 23.7136 35.8255 15.506V8.21381H32.8386C30.9274 8.21381 29.8347 8.24074 29.8051 8.28831ZM37.7327 8.28831C37.7623 8.33632 38.9286 8.36325 40.9861 8.36325C43.0437 8.36325 44.21 8.39017 44.2396 8.43819C44.2652 8.47903 44.3172 8.51268 44.3558 8.51268C44.3939 8.51268 44.3675 8.44537 44.297 8.36325C44.1521 8.19407 37.6286 8.11958 37.7327 8.28831ZM37.9548 8.64372C38.0199 8.77744 38.089 8.88694 38.1087 8.88694C38.1832 8.88694 38.1352 8.76757 37.9885 8.58762L37.8359 8.40049L37.9548 8.64372ZM38.8649 10.0802C38.9362 10.2009 39.026 10.2799 39.065 10.2561C39.1041 10.2318 39.0803 10.1811 39.0125 10.1434C38.9443 10.1053 38.9062 10.0461 38.9277 10.012C38.9488 9.9774 38.9143 9.92984 38.8505 9.90515C38.7523 9.86746 38.7545 9.89349 38.8649 10.0802ZM39.3756 10.8125C39.4411 10.9463 39.5102 11.0557 39.5299 11.0557C39.604 11.0557 39.5564 10.9368 39.4097 10.7564L39.2571 10.5698L39.3756 10.8125ZM40.2408 12.1588C40.2457 12.2755 40.4503 12.4828 40.4925 12.4141C40.5167 12.3751 40.4844 12.3226 40.4203 12.2983C40.3561 12.2737 40.3247 12.2194 40.3503 12.1781C40.3758 12.1368 40.361 12.1027 40.3175 12.1027C40.274 12.1027 40.2394 12.1283 40.2408 12.1588ZM40.7968 12.9818C40.8618 13.1155 40.9314 13.2246 40.9507 13.2246C41.0252 13.2246 40.9772 13.1056 40.8304 12.9257L40.6783 12.7386L40.7968 12.9818ZM23.541 16.1477C23.4692 16.1894 23.4108 16.2644 23.4113 16.3138C23.4122 16.3757 23.4297 16.3784 23.4674 16.3223C23.4979 16.2774 23.5899 16.2029 23.672 16.1562C23.7541 16.1096 23.7878 16.0714 23.747 16.0714C23.7057 16.0714 23.6132 16.1055 23.541 16.1477ZM24.6068 16.5758C24.6068 16.6494 24.9765 16.9218 25.0147 16.8769C25.0263 16.863 24.9393 16.7737 24.8213 16.6781C24.7032 16.5826 24.6068 16.5363 24.6068 16.5758ZM22.1831 17.0766C22.0722 17.1794 21.9533 17.2633 21.9187 17.2633C21.8837 17.2633 21.8353 17.3163 21.8106 17.3804C21.7765 17.4697 21.8142 17.4617 21.9712 17.345C22.4029 17.0246 22.547 16.8926 22.4676 16.8913C22.4222 16.8904 22.2943 16.9739 22.1831 17.0766ZM21.3919 17.634C21.2896 17.7125 21.2223 17.7928 21.2425 17.8126C21.2622 17.8323 21.3798 17.7673 21.5032 17.6685C21.7671 17.4567 21.6643 17.4249 21.3919 17.634ZM20.9104 17.9553C20.4325 18.3318 20.4002 18.3798 20.774 18.1572C20.9898 18.0289 21.1666 17.8929 21.1666 17.8552C21.1666 17.7596 21.1509 17.7659 20.9104 17.9553ZM20.0528 18.5391C19.9541 18.6212 19.8908 18.7051 19.911 18.7258C19.9317 18.746 19.9909 18.7114 20.043 18.649C20.095 18.5862 20.1839 18.5351 20.2409 18.5351C20.2974 18.5351 20.3436 18.5014 20.3436 18.4601C20.3436 18.3484 20.2521 18.3731 20.0528 18.5391ZM17.5497 18.8716C17.4882 18.9331 17.4043 18.9838 17.3635 18.9838C17.3231 18.9838 17.2787 19.0103 17.2648 19.0431C17.2513 19.0754 17.1117 19.1804 16.9556 19.276C16.799 19.3715 16.685 19.4635 16.7025 19.4806C16.7195 19.4981 16.9138 19.3931 17.1346 19.2477C17.3554 19.1027 17.5582 18.9838 17.5856 18.9838C17.613 18.9838 17.6547 18.9331 17.6785 18.8716C17.7018 18.8097 17.7081 18.7594 17.6915 18.7594C17.6754 18.7594 17.6116 18.8097 17.5497 18.8716ZM29.9195 18.8101C29.9168 18.9026 30.195 19.1211 30.5154 19.2791C30.6801 19.3599 30.6761 19.3482 30.4782 19.1799C30.3548 19.0749 30.2238 18.9879 30.187 18.9865C30.1506 18.9847 30.0757 18.9246 30.0214 18.8528C29.9666 18.781 29.9209 18.7617 29.9195 18.8101ZM19.3155 19.0673C19.0755 19.2208 19.0189 19.2854 19.1284 19.28C19.1903 19.2773 19.6557 18.9089 19.596 18.9107C19.5754 18.9111 19.4493 18.9816 19.3155 19.0673ZM30.7869 19.4685C30.8107 19.5304 30.8569 19.5645 30.8893 19.5448C30.922 19.5246 30.9678 19.5582 30.9916 19.6197C31.0391 19.744 31.1886 19.7732 31.1886 19.6587C31.1886 19.6188 31.0885 19.534 30.966 19.4707C30.7699 19.3693 30.7488 19.3693 30.7869 19.4685ZM31.6746 20.059C31.798 20.164 31.9326 20.2497 31.9739 20.2502C32.0591 20.2502 31.8236 20.0572 31.6001 19.9437C31.5175 19.902 31.5512 19.954 31.6746 20.059ZM17.7759 20.0806C17.6852 20.1717 17.7243 20.2511 17.8383 20.2076C17.8997 20.1838 17.9504 20.1344 17.9504 20.0976C17.9504 20.0191 17.8472 20.0092 17.7759 20.0806ZM15.5384 20.2233C15.4253 20.2843 15.3329 20.3673 15.3329 20.4073C15.3329 20.528 15.4357 20.4867 15.621 20.291C15.8243 20.077 15.8175 20.0716 15.5384 20.2233ZM32.4226 20.5998C32.6923 20.8075 32.8768 20.8659 32.647 20.6707C32.5236 20.5661 32.389 20.4813 32.3477 20.4822C32.3069 20.4835 32.3405 20.536 32.4226 20.5998ZM14.7531 20.7873C14.6194 20.8731 14.5099 20.9749 14.5099 21.0144C14.5099 21.0535 14.6279 20.9956 14.772 20.8856C14.9995 20.7124 15.0816 20.6258 15.0147 20.6303C15.0044 20.6312 14.8868 20.7016 14.7531 20.7873ZM33.0208 21.0005C33.229 21.2338 33.5948 21.4232 33.5346 21.2662C33.5109 21.2042 33.4615 21.1719 33.4247 21.1948C33.3875 21.2177 33.3574 21.2015 33.3574 21.1589C33.3574 21.1163 33.2483 21.0256 33.1146 20.9574L32.8714 20.8331L33.0208 21.0005ZM13.9117 21.377C13.8089 21.4573 13.7582 21.5233 13.7995 21.5233C13.8408 21.5233 13.9584 21.4573 14.0611 21.377C14.1643 21.2967 14.2146 21.2307 14.1733 21.2307C14.1325 21.2307 14.0145 21.2967 13.9117 21.377ZM33.7689 21.4905C33.851 21.5574 33.9856 21.6454 34.0682 21.6857L34.2176 21.7593L34.0682 21.6373C33.9856 21.5704 33.851 21.4825 33.7689 21.4421L33.6195 21.3689L33.7689 21.4905ZM13.445 21.6642C13.3324 21.7324 13.2242 21.8302 13.2045 21.8818C13.152 22.0187 13.1906 21.9999 13.4715 21.7522C13.7542 21.5031 13.7475 21.4811 13.445 21.6642ZM34.4793 21.9644C34.4793 22.0425 34.8504 22.3023 34.8961 22.2565C34.9128 22.2399 34.8257 22.152 34.7027 22.0613C34.5798 21.9702 34.4793 21.9267 34.4793 21.9644ZM48.5269 22.1062C49.5272 22.1179 51.1427 22.1179 52.1169 22.1062C53.0907 22.0946 52.2722 22.0847 50.2977 22.0847C48.3232 22.0847 47.5262 22.0946 48.5269 22.1062ZM12.5094 22.3167C12.3343 22.4217 12.1916 22.5411 12.1916 22.5823C12.1916 22.6241 12.3429 22.5491 12.5282 22.4159C12.8235 22.204 12.9119 22.1233 12.8459 22.1255C12.8356 22.126 12.6844 22.2121 12.5094 22.3167ZM35.7322 24.4123C35.7012 24.4433 35.6761 27.441 35.6761 31.074V37.6801L32.7031 37.7003L29.7301 37.7209L32.6941 37.7384C35.1169 37.7532 35.6729 37.738 35.742 37.6545C35.839 37.5378 35.8291 24.3154 35.7322 24.4123ZM13.2574 37.7375C14.0697 37.7496 15.3993 37.7496 16.2115 37.7375C17.0238 37.7254 16.3592 37.7155 14.7343 37.7155C13.1093 37.7155 12.4447 37.7254 13.2574 37.7375Z" fill="#17AF69"/>
<path fill-rule="evenodd" clip-rule="evenodd" d="M29.7129 11.0558C29.7129 11.2407 29.7277 11.3165 29.7452 11.2241C29.7631 11.1316 29.7631 10.98 29.7452 10.8875C29.7277 10.7951 29.7129 10.8705 29.7129 11.0558ZM46.1466 23.6208C46.1466 23.6697 47.5552 23.6957 50.223 23.6957C52.8904 23.6957 54.299 23.6697 54.299 23.6208C54.299 23.5719 52.8904 23.5459 50.223 23.5459C47.5552 23.5459 46.1466 23.5719 46.1466 23.6208ZM45.0498 25.3225C44.8443 25.6411 44.6181 25.9969 44.5463 26.1127C44.475 26.2285 44.3677 26.3802 44.308 26.4493C44.1546 26.627 43.2288 28.0244 43.1794 28.1523C43.0785 28.4161 43.3172 28.22 43.5061 27.8839C43.6214 27.6784 43.7413 27.5101 43.7722 27.5101C43.8027 27.5101 43.8283 27.4751 43.8283 27.432C43.8283 27.3889 43.8638 27.3136 43.9073 27.2637C43.9508 27.2139 44.2367 26.7863 44.5423 26.3133C44.8483 25.8403 45.1324 25.4127 45.1737 25.3628C45.2154 25.313 45.2491 25.2376 45.2491 25.1946C45.2491 25.1515 45.2773 25.1165 45.3119 25.1165C45.3464 25.1165 45.4133 25.0326 45.46 24.9298C45.6341 24.5479 45.4115 24.7611 45.0498 25.3225ZM42.8927 28.6001C42.6409 28.9008 42.5875 29.0058 42.6876 29.0058C42.7248 29.0058 42.8644 28.8546 42.9972 28.6692C43.2853 28.2685 43.2113 28.2196 42.8927 28.6001ZM42.1231 29.7498C41.8677 30.1178 41.6591 30.4458 41.6591 30.479C41.6591 30.5118 41.5581 30.6567 41.4347 30.8008C41.2058 31.0687 41.1605 31.1746 41.2754 31.1746C41.3535 31.1746 41.7739 30.5625 41.7506 30.4831C41.7412 30.4521 41.7645 30.427 41.8018 30.427C41.839 30.427 41.9629 30.2668 42.0773 30.0716C42.1917 29.8764 42.3304 29.6708 42.3851 29.6156C42.5292 29.4711 42.7213 29.0807 42.6486 29.0807C42.6145 29.0807 42.378 29.3818 42.1231 29.7498ZM40.9586 31.5471C40.8504 31.7109 40.7616 31.8603 40.7616 31.88C40.7616 31.8993 40.6839 31.999 40.5883 32.1017C40.4932 32.2045 40.3406 32.4333 40.2495 32.6106C40.1584 32.7874 40.0189 33.0167 39.9395 33.1195C39.6855 33.448 38.8171 34.7718 38.8171 34.8306C38.8171 34.862 38.6991 35.0249 38.5555 35.1932C38.4115 35.3614 38.293 35.5275 38.2921 35.562C38.2907 35.6258 37.9165 36.2168 37.7635 36.3967C37.6145 36.5722 37.0971 37.4522 37.0971 37.5307C37.0971 37.5814 38.2122 37.607 40.4115 37.607H43.726L43.9015 37.2888C43.9984 37.1143 44.1743 36.828 44.2928 36.6534C44.4117 36.4784 44.4777 36.3352 44.4395 36.3352C44.4018 36.3352 44.1936 36.6045 43.9778 36.9339L43.5851 37.532H40.4075C37.5956 37.532 37.2357 37.519 37.2743 37.4185C37.2981 37.3557 37.4534 37.1053 37.6185 36.8616C37.7841 36.6179 37.9196 36.3828 37.9196 36.3393C37.9196 36.2962 37.9533 36.2607 37.9946 36.2607C38.0354 36.2607 38.0691 36.2257 38.0691 36.1827C38.0691 36.1396 38.1054 36.0642 38.1498 36.0144C38.2176 35.9376 38.7256 35.1833 39.5724 33.8999C39.6792 33.7379 40.0144 33.2182 40.3169 32.7452C40.6198 32.2722 40.9119 31.8401 40.9657 31.7849C41.1147 31.6328 41.2983 31.2495 41.2224 31.2495C41.1856 31.2495 41.0667 31.3833 40.9586 31.5471ZM45.1414 35.1456C44.9879 35.3771 44.9098 35.6832 45.0494 35.5064C45.254 35.2466 45.4734 34.9271 45.4734 34.8885C45.4734 34.7547 45.3227 34.8714 45.1414 35.1456ZM44.7918 35.6437C44.7869 35.6742 44.7869 35.7249 44.7918 35.7559C44.7963 35.7864 44.7743 35.812 44.742 35.812C44.7097 35.812 44.6235 35.913 44.5508 36.0364C44.3534 36.3698 44.5248 36.3079 44.7532 35.9632C44.8613 35.7994 44.9502 35.6477 44.9502 35.6267C44.9502 35.5652 44.8017 35.5809 44.7918 35.6437Z" fill="#9CCC2C"/>
<path fill-rule="evenodd" clip-rule="evenodd" d="M38.1194 8.79312C38.1428 8.88601 38.1917 8.9614 38.228 8.9614C38.2644 8.9614 38.2859 8.99954 38.2756 9.04576C38.2653 9.09198 38.3021 9.14628 38.3577 9.16648C38.4686 9.20686 38.4035 9.05339 38.1912 8.77472C38.0791 8.62753 38.0782 8.62798 38.1194 8.79312ZM44.6573 9.02153C44.6541 9.07538 44.7358 9.24276 44.8386 9.39444C44.9413 9.54567 45.0253 9.6417 45.0253 9.6076C45.0253 9.57349 44.9629 9.45637 44.8866 9.34687C44.8103 9.23783 44.7286 9.09782 44.7053 9.03634C44.677 8.9605 44.6613 8.95556 44.6573 9.02153ZM39.5406 10.9624C39.564 11.0548 39.6129 11.1307 39.6492 11.1307C39.6856 11.1307 39.7152 11.1809 39.7152 11.2428C39.7152 11.3043 39.7502 11.355 39.7928 11.355C39.8767 11.355 39.8103 11.2038 39.6124 10.9435C39.5002 10.7963 39.4989 10.7968 39.5406 10.9624ZM41.0426 13.2743C41.0942 13.295 41.1364 13.3596 41.1364 13.4179C41.1364 13.4763 41.1709 13.5238 41.2136 13.5238C41.2661 13.5238 41.2652 13.4758 41.2109 13.3744C41.1669 13.2918 41.0902 13.2272 41.0399 13.2304C40.9717 13.2348 40.9721 13.2456 41.0426 13.2743ZM41.6166 14.122C41.6403 14.184 41.6803 14.2934 41.7059 14.3652C41.7314 14.437 41.783 14.4963 41.8207 14.4963C41.8885 14.4963 41.8234 14.3477 41.6565 14.122C41.5829 14.0224 41.5784 14.0224 41.6166 14.122ZM43.0059 16.2307C43.0059 16.2545 43.0561 16.3703 43.1176 16.4883C43.1791 16.6063 43.2285 16.6521 43.2276 16.5901C43.2267 16.5287 43.1764 16.4129 43.1158 16.333C43.0552 16.2531 43.0059 16.2074 43.0059 16.2307ZM22.4271 16.9985C22.2359 17.139 22.0542 17.2305 22.0228 17.2027C21.9914 17.1744 21.99 17.1937 22.0201 17.2458C22.0699 17.3328 22.673 16.9797 22.7857 16.7975C22.8444 16.7019 22.7901 16.7324 22.4271 16.9985ZM26.3694 17.8929C26.526 18.0077 26.5969 17.9952 26.5175 17.8668C26.4905 17.8229 26.4133 17.787 26.346 17.787C26.2442 17.787 26.2478 17.8045 26.3694 17.8929ZM44.4589 18.4601C44.4823 18.5216 44.5227 18.6311 44.5478 18.7033C44.5734 18.7751 44.625 18.8339 44.6627 18.8339C44.7304 18.8339 44.6654 18.6854 44.4989 18.4601C44.4248 18.3605 44.4203 18.3605 44.4589 18.4601ZM30.142 18.9636C30.2035 18.9874 30.3552 19.0807 30.4786 19.1714C30.7474 19.3684 30.8896 19.4514 30.8896 19.4119C30.8896 19.3464 30.2219 18.9093 30.1294 18.9147C30.0576 18.9192 30.0612 18.9326 30.142 18.9636ZM18.3677 19.7704C18.2883 19.8306 18.238 19.8938 18.2555 19.9113C18.273 19.9288 18.3668 19.8786 18.4637 19.8001C18.6684 19.634 18.5827 19.608 18.3677 19.7704ZM32.6788 20.6563C32.7784 20.7788 33.0589 20.9641 33.0589 20.9076C33.0589 20.8932 32.9494 20.8017 32.8157 20.7034C32.6653 20.5934 32.6128 20.5755 32.6788 20.6563ZM14.0036 21.2392C13.562 21.5188 13.7967 21.4609 14.2796 21.1714C14.2971 21.1611 14.2962 21.1378 14.2778 21.1194C14.2594 21.1014 14.136 21.1548 14.0036 21.2392ZM15.7344 21.5636C15.7107 21.6251 15.6559 21.6534 15.6128 21.6269C15.5639 21.5964 15.5572 21.6148 15.5949 21.6758C15.6425 21.7535 15.6734 21.7485 15.7448 21.6512C15.7937 21.5838 15.8561 21.5506 15.8825 21.5776C15.9095 21.6045 15.9314 21.587 15.9314 21.539C15.9314 21.4133 15.7852 21.4317 15.7344 21.5636ZM34.5546 21.9276C34.5546 21.9482 34.6555 22.0371 34.7789 22.125C34.9024 22.2125 35.0033 22.2677 35.0033 22.2471C35.0033 22.2269 34.9024 22.138 34.7789 22.0501C34.6555 21.9621 34.5546 21.9069 34.5546 21.9276ZM48.4847 22.0312C49.4616 22.0434 51.06 22.0434 52.037 22.0312C53.0139 22.0196 52.2147 22.0097 50.2608 22.0097C48.307 22.0097 47.5077 22.0196 48.4847 22.0312Z" fill="#04A44E"/>
</svg>
