<svg width="135" height="33" viewBox="0 0 135 33" fill="none" xmlns="http://www.w3.org/2000/svg">
<g id="Frame 7" clip-path="url(#clip0_8940_102828)">
<path id="Union" fill-rule="evenodd" clip-rule="evenodd" d="M21.7335 7.46675C21.8558 7.0997 21.9221 6.70699 21.9221 6.29879C21.9221 4.26065 20.2698 2.6084 18.2317 2.6084C17.9789 2.6084 17.7321 2.63381 17.4936 2.68221L9.85688 3.90014C6.5023 4.22278 3.75519 6.62462 2.9198 9.8016L2.91656 9.80469L0.371094 20.2817C0.381288 20.2646 0.391407 20.2476 0.401461 20.2307C0.907321 19.3805 1.25022 18.8042 2.80614 18.5509C2.91458 18.5289 3.0248 18.5116 3.13648 18.4993L13.9461 16.8133C17.3877 16.4705 20.1907 13.9587 20.9688 10.6646L21.7335 7.46675ZM0 24.162C0 26.0743 1.45446 27.6468 3.31747 27.8338C3.37807 27.8449 3.44024 27.8524 3.5059 27.8524C3.54063 27.8524 3.57536 27.8521 3.60999 27.8516C3.63672 27.8521 3.66351 27.8524 3.69039 27.8524C3.90019 27.8524 4.10593 27.8349 4.30616 27.8013C7.05044 27.4484 9.27159 25.308 9.78044 22.6084L10.9236 17.999L2.48081 19.376C1.5869 19.549 0.875995 20.1 0.701181 20.9145L0.164335 23.0696C0.0575121 23.4148 0 23.7817 0 24.162Z" fill="white"/>
<path id="Vector" fill-rule="evenodd" clip-rule="evenodd" d="M30.6928 14.0358V8.69098H34.3108C36.5037 8.69098 37.4079 9.81479 37.4079 11.3223C37.4079 12.912 36.5037 14.0363 34.3108 14.0363L30.6928 14.0358ZM30.6928 23.7388V17.1334H34.9138C38.4771 17.1334 40.7523 14.7489 40.7523 11.4323C40.7523 8.14315 38.4771 5.53926 34.9138 5.53926H26.8828V23.7388H30.6928ZM49.2768 18.6132C49.2495 20.203 47.879 21.546 46.0423 21.546C44.9189 21.546 44.3154 21.0526 44.3154 20.0385C44.3154 18.8873 44.9735 18.3117 47.0016 17.9279C48.3174 17.6812 48.9477 17.4896 49.3041 17.133L49.2768 18.6132ZM52.8673 23.7388V15.2145C52.8673 11.8158 51.3869 9.89706 47.1115 9.89706C42.7804 9.89706 41.2459 11.8432 41.1907 14.6389H44.5073C44.6718 13.4329 45.3299 12.638 46.947 12.638C48.3448 12.638 49.2216 13.1588 49.2216 14.0359C49.2216 14.9678 48.7285 15.3241 46.947 15.5708C43.356 16.0643 40.7523 16.5028 40.7523 20.3949C40.7523 22.5877 42.1774 24.0952 45.2474 24.0952C47.0568 24.0952 48.482 23.4647 49.3315 22.5328C49.3573 22.9421 49.4307 23.3468 49.5507 23.7389L52.8673 23.7388ZM63.0088 24.15C63.0088 25.9313 61.8302 27.0553 60.5418 27.0553C58.6782 27.0553 57.7462 26.0686 57.7462 24.4788H54.4296C54.4296 27.9598 56.4304 30.1252 60.3777 30.1252C63.831 30.1252 66.5719 27.905 66.5719 24.0951V10.2533H63.0088V18.4764C63.0088 19.9292 61.8849 20.9981 60.2679 20.9981C58.7602 20.9981 57.9932 20.1484 57.9932 18.4764V10.2533H54.4296V18.9969C54.4296 21.9572 56.5402 23.8759 59.3632 23.8759C61.0354 23.8759 62.5157 23.1632 63.0088 21.9572V24.15ZM87.4859 23.7388V14.3922C87.4859 11.8705 85.5944 9.89686 82.8813 9.89686C81.1813 9.89686 79.9754 10.5548 79.2357 12.0348C78.1938 10.4725 77.3165 9.89686 75.4802 9.89686C73.6992 9.89686 72.4381 10.4451 71.5334 12.2267V10.2532H68.1895V23.739H71.7526V15.5434C71.7526 13.7891 72.4927 12.912 73.9179 12.912C75.4802 12.912 76.0564 13.4603 76.0564 15.626V23.7392H79.619V15.6813C79.619 14.0367 80.5788 12.8033 81.8946 12.8033C83.1547 12.8033 84.0053 13.9545 84.0053 15.5716V23.7397H87.4859V23.7388ZM97.0244 18.6132C96.9966 20.203 95.6266 21.546 93.7904 21.546C92.6665 21.546 92.063 21.0526 92.063 20.0385C92.063 18.8873 92.7217 18.3117 94.7488 17.9279C96.0651 17.6812 96.6954 17.4896 97.0518 17.133L97.0244 18.6132ZM100.615 23.7388V15.2145C100.615 11.8158 99.1351 9.89706 94.8591 9.89706C90.528 9.89706 88.9935 11.8432 88.9388 14.6389H92.2549C92.4194 13.4329 93.0776 12.638 94.6951 12.638C96.0929 12.638 96.9698 13.1588 96.9698 14.0359C96.9698 14.9678 96.4762 15.3241 94.6951 15.5708C91.1041 16.0643 88.5004 16.5028 88.5004 20.3949C88.5004 22.5877 89.9256 24.0952 92.9956 24.0952C94.804 24.0952 96.2291 23.4647 97.0796 22.5328C97.1049 22.9421 97.1783 23.3469 97.2988 23.7389L100.615 23.7388ZM108.564 21.1897C106.865 21.1897 105.549 19.5999 105.549 17.325C105.549 14.3922 106.563 12.9395 108.536 12.9395C110.62 12.9395 111.606 14.3373 111.606 17.1057C111.606 19.5177 110.345 21.1897 108.564 21.1897ZM105.604 23.7388L105.631 22.0942C106.481 23.4647 107.742 24.0951 109.385 24.0951C112.785 24.0951 115.224 21.4091 115.224 16.859C115.224 12.7749 113.168 9.89696 109.688 9.89696C108.016 9.89696 106.7 10.5822 105.686 12.0075V5.31964H102.177V23.739L105.604 23.7388ZM120.104 23.7388V5.31934H116.54V23.7388H120.104ZM124.982 15.6809C125.119 13.817 126.298 12.7206 127.723 12.7206C129.121 12.7206 130.436 13.68 130.491 15.6809H124.982ZM134.164 17.9285C134.164 12.5837 131.971 9.89752 127.832 9.89752C123.693 9.89752 121.309 12.5835 121.309 16.7499C121.309 21.6288 123.557 24.0957 128.052 24.0957C130.929 24.0957 133.15 22.5334 133.972 19.7649H130.299C130.053 20.6969 129.039 21.2725 127.887 21.2725C126.133 21.2725 124.982 19.9569 124.872 17.9285H134.164Z" fill="white"/>
</g>
<defs>
<clipPath id="clip0_8940_102828">
<rect width="134.188" height="31.5496" fill="white" transform="translate(0 0.608398)"/>
</clipPath>
</defs>
</svg>
