<svg width="71" height="26" viewBox="0 0 71 26" fill="none" xmlns="http://www.w3.org/2000/svg">
<g id="logo">
<path id="Vector 1" d="M12.375 2.25V0.914062C15.075 0.914062 16.125 0.304688 16.3125 0H17.4375V11.8125L14.0625 15.75V2.8125C14.0625 2.41863 14.7807 1.99603 15.0856 1.77101C14.5316 2.15165 13.0763 2.25 12.375 2.25Z" fill="white"/>
<path id="Union" fill-rule="evenodd" clip-rule="evenodd" d="M66.9375 21.7732C65.4954 23.9287 63.2598 25.3125 60.75 25.3125C56.4008 25.3125 52.875 21.1571 52.875 16.0312C52.875 10.9054 56.4008 6.75 60.75 6.75C63.7385 6.75 65.713 7.80133 66.9375 9.49869V7.04883L70.3125 7.07002V24.7712L66.9375 24.75V21.7732ZM66.9375 15.75C66.9375 19.4779 64.9816 22.1836 61.875 22.1836C58.7684 22.1836 56.25 19.4779 56.25 15.75C56.25 12.0221 58.7684 9.5625 61.875 9.5625C64.9816 9.5625 66.9375 12.0221 66.9375 15.75Z" fill="white"/>
<path id="Union_2" fill-rule="evenodd" clip-rule="evenodd" d="M45 10.124C46.3125 8.43653 49.6125 5.51153 52.3125 7.31153L51.1875 10.6865C49.875 10.124 46.8 9.89903 45 13.499V10.124ZM41.625 7.08203V24.7481H45V7.08203L41.625 7.08203Z" fill="white"/>
<path id="Union_3" fill-rule="evenodd" clip-rule="evenodd" d="M8.4375 25.3125C4.08826 25.3125 0 21.1571 0 16.0312C0 10.9054 3.52576 6.75 7.875 6.75C9.75397 6.75 11.2321 7.16559 12.375 7.89605V10.9008C11.5211 10.0429 10.3729 9.5625 9 9.5625C5.8934 9.5625 3.375 12.3033 3.375 16.0312C3.375 19.2968 5.0625 21.375 7.875 22.062C11.9639 23.0607 17.2005 17.7155 19.3313 14.655C20.8894 12.4171 22.565 10.0106 25.0659 8.4484C26.5977 7.37859 28.4418 6.75 30.375 6.75C35.3671 6.75 38.9883 11.1405 38.9883 16.0312C38.9883 21.1571 35.3456 25.3125 30.375 25.3125C26.4563 25.3125 22.9041 22.7298 21.5761 19.125H25.0862C26.1488 20.8896 28.0308 21.9375 30.0586 21.9375C33.1652 21.9375 35.4375 19.4779 35.4375 15.75C35.4375 12.2272 32.625 10.125 30.375 10.125C28.125 10.125 26.4375 10.125 21.375 17.4375C17.0186 23.0625 13.1133 25.3125 8.4375 25.3125Z" fill="white"/>
</g>
</svg>
